<?xml version="1.0" standalone="no"?>
<!DOCTYPE svg PUBLIC "-//W3C//DTD SVG 20010904//EN"
 "http://www.w3.org/TR/2001/REC-SVG-20010904/DTD/svg10.dtd">
<svg version="1.0" xmlns="http://www.w3.org/2000/svg"
 width="134.000000pt" height="113.000000pt" viewBox="0 0 134.000000 113.000000"
 preserveAspectRatio="xMidYMid meet">

<g transform="translate(0.000000,113.000000) scale(0.100000,-0.100000)"
fill="#000000" stroke="none">
<path d="M609 917 c-25 -7 -62 -23 -83 -35 -29 -17 -53 -22 -110 -22 -49 0
-77 -4 -85 -13 -6 -8 -8 -17 -4 -20 13 -14 237 -7 278 8 56 20 115 18 179 -6
143 -53 200 -227 118 -359 l-31 -50 47 0 c47 0 48 1 71 48 35 69 39 170 12
243 -58 153 -240 249 -392 206z m61 -32 c0 -8 -9 -15 -20 -15 -11 0 -20 7 -20
15 0 8 9 15 20 15 11 0 20 -7 20 -15z m326 -256 c10 -17 -13 -36 -27 -22 -12
12 -4 33 11 33 5 0 12 -5 16 -11z"/>
<path d="M247 774 c-20 -21 12 -24 219 -24 176 0 225 3 222 13 -4 9 -58 13
-219 15 -119 1 -218 -1 -222 -4z"/>
<path d="M747 743 c-13 -13 -7 -61 9 -67 42 -16 74 16 54 54 -10 19 -49 27
-63 13z"/>
<path d="M285 690 c-15 -24 12 -30 130 -30 129 0 135 -2 135 -48 0 -9 5 -34
10 -54 9 -30 17 -39 43 -46 41 -10 50 -52 15 -67 -13 -5 -24 -20 -26 -32 -4
-26 15 -31 24 -8 8 20 48 19 64 0 8 -9 17 -12 22 -7 13 13 -1 40 -23 47 -27 9
-24 49 6 69 13 9 28 16 32 16 5 0 17 -23 28 -51 22 -57 38 -74 60 -65 22 8 18
40 -11 99 -30 58 -39 67 -71 67 -26 0 -30 12 -9 29 10 9 16 8 26 -4 8 -10 31
-15 71 -15 l59 0 24 49 c23 44 24 61 6 61 -4 0 -15 -18 -25 -40 -17 -37 -21
-40 -60 -40 -34 0 -45 5 -63 30 -13 17 -31 30 -40 30 -23 0 -92 -90 -92 -119
0 -14 -5 -21 -12 -19 -13 5 -20 28 -35 108 l-8 45 -137 3 c-86 2 -139 -1 -143
-8z"/>
<path d="M237 614 c-19 -20 5 -24 134 -24 108 0 140 3 137 13 -5 13 -258 24
-271 11z"/>
<path d="M287 534 c-19 -20 2 -24 101 -22 63 2 107 7 107 13 0 11 -197 20
-208 9z"/>
<path d="M247 454 c-20 -20 6 -24 154 -24 124 0 160 3 157 13 -4 9 -45 13
-154 15 -83 1 -153 -1 -157 -4z"/>
<path d="M250 261 c0 -65 3 -81 15 -81 10 0 15 10 15 30 0 23 4 30 20 30 11 0
20 7 20 15 0 8 -9 15 -20 15 -11 0 -20 7 -20 15 0 10 10 15 31 15 24 0 30 4
27 18 -2 12 -15 18 -46 20 l-42 3 0 -80z"/>
<path d="M640 261 l0 -81 39 0 c54 0 85 27 85 74 0 47 -29 76 -83 83 l-41 6 0
-82z m88 5 c4 -32 -13 -56 -39 -56 -16 0 -19 8 -19 43 0 52 5 58 33 48 14 -5
23 -18 25 -35z"/>
<path d="M561 308 c-12 -32 1 -109 20 -121 9 -6 25 -7 35 -3 18 7 18 8 2 20
-19 14 -25 56 -8 56 6 0 10 7 10 15 0 8 -4 15 -9 15 -5 0 -11 9 -14 20 -7 27
-25 25 -36 -2z"/>
<path d="M1000 255 c0 -60 3 -75 15 -75 9 0 15 9 15 23 l1 22 18 -22 c19 -22
51 -31 51 -15 0 5 -9 17 -20 27 -24 22 -25 33 -3 57 15 17 15 18 -5 18 -12 0
-26 -8 -31 -17 -8 -15 -10 -11 -11 20 0 26 -4 37 -15 37 -12 0 -15 -15 -15
-75z"/>
<path d="M361 291 c-17 -11 -5 -32 14 -25 8 3 20 2 27 -3 9 -5 2 -10 -22 -13
-27 -4 -36 -10 -38 -29 -5 -30 11 -40 60 -39 l38 0 0 43 c0 62 -37 92 -79 66z
m49 -71 c0 -5 -9 -10 -20 -10 -11 0 -20 5 -20 10 0 6 9 10 20 10 11 0 20 -4
20 -10z"/>
<path d="M469 279 c-22 -22 -14 -43 22 -54 10 -4 19 -11 19 -16 0 -6 -9 -8
-20 -4 -26 8 -48 -4 -29 -16 24 -15 67 -10 78 8 12 23 -4 53 -29 53 -11 0 -20
5 -20 11 0 6 9 9 20 6 24 -6 38 12 19 24 -22 14 -37 11 -60 -12z"/>
<path d="M802 284 c-26 -18 -30 -75 -8 -93 18 -15 68 -10 74 7 2 8 -7 12 -28
12 -18 0 -29 4 -25 10 3 6 19 10 36 10 22 0 29 5 29 19 0 17 -33 51 -50 51 -3
0 -16 -7 -28 -16z m43 -24 c3 -5 -3 -10 -15 -10 -12 0 -18 5 -15 10 3 6 10 10
15 10 5 0 12 -4 15 -10z"/>
<path d="M906 284 c-23 -22 -20 -32 17 -54 17 -11 28 -20 22 -21 -5 -1 -18 -2
-27 -3 -35 -2 -17 -21 20 -21 35 0 37 2 37 30 0 23 -5 31 -22 33 -13 2 -23 8
-23 13 0 6 8 8 19 4 11 -3 21 0 24 9 4 9 -3 16 -16 20 -31 8 -34 8 -51 -10z"/>
</g>
</svg>
